<?xml version="1.0" encoding="utf-8"?>
<?xml-stylesheet type="text/xsl" href="rss1.xsl"?>
<rss version="2.0" xmlns:atom="http://www.w3.org/2005/Atom" xmlns:content="http://purl.org/rss/1.0/modules/content/" xmlns:dc="http://purl.org/dc/elements/1.1/" xmlns:media="http://search.yahoo.com/mrss/">
<channel>
 <title>Getty</title>
 <link>http://www.gettyimg.com/</link>
 <atom:link href="http://www.gettyimg.com/" rel="self" type="application/rss+xml" />

 
                <item>
                <title><![CDATA[【Albums (lossless)】FLAC - Stray Kids – IN LIFE [WEB FLAC 24-Bit/44.1 kHz + Genie Music Hi-Res Audio]]]></title>
                <link><![CDATA[https://sharemania.us/threads/stray-kids-%E2%80%93-in-life-web-flac-24-bit-44-1-khz-genie-music-hi-res-audio.250306/]]></link>
                <description><![CDATA[<article>
<blockquote class="messageText SelectQuoteContainer ugc baseHtml">
<img src="https://i.imgur.com/3Amddld.jpeg" class="bbCodeImage LbImage" alt="[​IMG]" data-url="https://i.imgur.com/3Amddld.jpeg" style=""><br>
<br>
<img src="https://i.imgur.com/JnvMsxw.png" class="bbCodeImage LbImage" alt="[​IMG]" data-url="https://i.imgur.com/JnvMsxw.png" style=""><br>
<br>
<span style="font-family: 'Book Antiqua'"><b>Artist</b>: Stray Kids (스트레이 키즈)<br>
<b>Album</b>: IN生<br>
<b>Release</b>: 2020/09/14<br>
<b>Type</b>: Repackage Album<br>
<b>Format</b>: Free Lossless Audio Codec<br>
<b>Quality</b>: High Resolution, Lossless Audio - Studio Quality<br>
<b>Sample Rate</b>: 24-Bit/44.100 kHz - Stereo<br>
<b>Source</b>: Purchased from <span style="color: #0059b3">Genie Music</span><br>
<br>
<b>TRACK LIST</b><br>
<span style="color: #000000">1. 토끼와 거북이 (The Tortoise and the Hare)<br>
2. Back Door<br>
3. B Me<br>
4. 아니 (Any)<br>
5. 미친 놈 (Ex)<br>
6. We Go (Bang Chan &amp; Changbin &amp; HAN)<br>
7. Wow (Lee Know &amp; Hyunjin &amp; Felix)<br>
8. My Universe (Seungmin &amp; I.N feat. Changbin)<br>
9. 神메뉴 (God's Menu)<br>
10. Easy<br>
11. Pacemaker<br>
12. 비행기 (Airplane)<br>
13. 일상 (Another Day)<br>
14. Phobia<br>
15. 청사진 (Blueprint)<br>
16. 타 (TA)<br>
17. Haven<br>
<br>
<b>MORE INFORMATION</b><br>
1 Disc - 17 Tracks.<br>
Artwork - JPEG 3000x3000.<br>
SoX Spectrograms - <a href="https://imgur.com/a/koBsP4D" target="_blank" class="externalLink" rel="nofollow">Preview</a>.<br>
Lossless Audio Checker - <a href="https://i.imgur.com/QQHnSE4.png" target="_blank" class="externalLink" rel="nofollow">Preview</a>.<br>
<br>
<b>DOWNLOAD</b><br>
<div class="bbCodeBlock bbCodeVfcHH HiddenContent">
<div class="attribution type">Hidden Content:</div>
<blockquote>You must reply before you can see the hidden data contained here.</blockquote>
</div></span><br>
<span style="font-size: 12px"><span style="color: #808080"><b>HOW TO DOWNLOAD</b><br>
1. Copy the text and paste into the Base64 decoder.<br>
2. Decode the text 3 times to find the link to MEGA.<br>
3. Download the compressed file and use my username to uncompress the files.</span></span></span>
<div class="messageTextEndMarker">&nbsp;</div>
</blockquote>
</article>]]></description>
                <author><![CDATA[vedoxe8178]]></author>
                </item>

                
                <item>
                <title><![CDATA[【Cinema Center】SERIES - ALRL SERIES COLLECTION]]></title>
                <link><![CDATA[https://sharemania.us/threads/alrl-series-collection.250303/]]></link>
                <description><![CDATA[<article>
<blockquote class="messageText SelectQuoteContainer ugc baseHtml">
On this channel I will reupload my entire collection of series downloaded from streaming platforms in the best possible quality.<br>
<br>
<div class="bbCodeBlock bbCodeVfcHH HiddenContent">
<div class="attribution type">Hidden Content:</div>
<blockquote>You must either reply or click 'Like' to see the hidden information contained here.</blockquote>
</div>Enjoy
<div class="messageTextEndMarker">&nbsp;</div>
</blockquote>
</article>]]></description>
                <author><![CDATA[alrl]]></author>
                </item>

                
                <item>
                <title><![CDATA[【Apple Music】WEB-RiP - Nicoleta Nuca - Spune-mi (1080p)]]></title>
                <link><![CDATA[https://sharemania.us/threads/nicoleta-nuca-spune-mi-1080p.250305/]]></link>
                <description><![CDATA[<article>
<blockquote class="messageText SelectQuoteContainer ugc baseHtml">
<img src="https://i.postimg.cc/8c3G1zX0/Nicoleta-Nuca-Spune-mi-mp4.jpg" class="bbCodeImage LbImage" alt="[​IMG]" data-url="https://i.postimg.cc/8c3G1zX0/Nicoleta-Nuca-Spune-mi-mp4.jpg" style=""><br>
<br>
<div class="bbCodeBlock bbCodeCode">
<div class="type">Code:</div>
<pre>General
Complete name                  : G:\Новая папка\Nicoleta Nuca - Spune-mi.mp4
Format                         : MPEG-4
Format profile                 : Base Media
Codec ID                       : isom (isom/iso2/avc1/mp41)
File size                      : 167 MiB
Duration                       : 3 min 23 s
Overall bit rate               : 6 865 kb/s
Frame rate                     : 25.000 FPS
Movie name                     : Spune-mi
Performer                      : Nicoleta Nuca
Genre                          : Pop
ContentType                    : Music Video
Recorded date                  : 2022-01-14 08:00:00 UTC
Writing application            : Lavf56.30.100
Copyright                      : ℗ 2021 Cat Music

Video
ID                             : 1
Format                         : AVC
Format/Info                    : Advanced Video Codec
Format profile                 : High@L4
Format settings                : CABAC / 4 Ref Frames
Format settings, CABAC         : Yes
Format settings, Reference fra : 4 frames
Format settings, Slice count   : 8 slices per frame
Codec ID                       : avc1
Codec ID/Info                  : Advanced Video Coding
Duration                       : 3 min 23 s
Bit rate                       : 6 598 kb/s
Width                          : 1 920 pixels
Height                         : 1 080 pixels
Display aspect ratio           : 16:9
Frame rate mode                : Constant
Frame rate                     : 25.000 FPS
Color space                    : YUV
Chroma subsampling             : 4:2:0
Bit depth                      : 8 bits
Scan type                      : Progressive
Bits/(Pixel*Frame)             : 0.127
Stream size                    : 160 MiB (96%)
Color range                    : Limited
Color primaries                : BT.709
Transfer characteristics       : BT.709
Matrix coefficients            : BT.709
Codec configuration box        : avcC

Audio
ID                             : 2
Format                         : AAC LC
Format/Info                    : Advanced Audio Codec Low Complexity
Codec ID                       : mp4a-40-2
Duration                       : 3 min 23 s
Duration_LastFrame             : -12 ms
Bit rate mode                  : Constant
Bit rate                       : 265 kb/s
Channel(s)                     : 2 channels
Channel layout                 : L R
Sampling rate                  : 48.0 kHz
Frame rate                     : 46.875 FPS (1024 SPF)
Compression mode               : Lossy
Stream size                    : 6.36 MiB (4%)
Default                        : Yes
Alternate group                : 1

</pre>
</div>
<div class="bbCodeBlock bbCodeVfcHH HiddenContent">
<div class="attribution type">Hidden Content:</div>
<blockquote>You must either reply or click 'Like' to see the hidden information contained here.</blockquote>
</div>
<div class="messageTextEndMarker">&nbsp;</div>
</blockquote>
</article>]]></description>
                <author><![CDATA[vitalya3]]></author>
                </item>

                
                <item>
                <title><![CDATA[【Apple Music】WEB-RiP - Nicoleta Nuca - Nimeni nu-i perfect (1080p)]]></title>
                <link><![CDATA[https://sharemania.us/threads/nicoleta-nuca-nimeni-nu-i-perfect-1080p.250304/]]></link>
                <description><![CDATA[<article>
<blockquote class="messageText SelectQuoteContainer ugc baseHtml">
<img src="https://i.postimg.cc/8cX3hXhJ/Nicoleta-Nuca-Nimeni-nu-i-perfect-mp4.jpg" class="bbCodeImage LbImage" alt="[​IMG]" data-url="https://i.postimg.cc/8cX3hXhJ/Nicoleta-Nuca-Nimeni-nu-i-perfect-mp4.jpg" style=""><br>
<br>
<div class="bbCodeBlock bbCodeCode">
<div class="type">Code:</div>
<pre>General
Complete name                  : G:\Новая папка\Nicoleta Nuca - Nimeni nu-i perfect.mp4
Format                         : MPEG-4
Format profile                 : Base Media
Codec ID                       : isom (isom/iso2/avc1/mp41)
File size                      : 154 MiB
Duration                       : 3 min 6 s
Overall bit rate               : 6 902 kb/s
Frame rate                     : 25.000 FPS
Movie name                     : Nimeni nu-i perfect
Performer                      : Nicoleta Nuca
Genre                          : Pop
ContentType                    : Music Video
Recorded date                  : 2022-03-03 08:00:00 UTC
Writing application            : Lavf56.30.100
Copyright                      : ℗ 2022 Cat Music

Video
ID                             : 1
Format                         : AVC
Format/Info                    : Advanced Video Codec
Format profile                 : High@L4
Format settings                : CABAC / 4 Ref Frames
Format settings, CABAC         : Yes
Format settings, Reference fra : 4 frames
Format settings, Slice count   : 8 slices per frame
Codec ID                       : avc1
Codec ID/Info                  : Advanced Video Coding
Duration                       : 3 min 6 s
Bit rate                       : 6 636 kb/s
Width                          : 1 920 pixels
Height                         : 1 080 pixels
Display aspect ratio           : 16:9
Frame rate mode                : Constant
Frame rate                     : 25.000 FPS
Color space                    : YUV
Chroma subsampling             : 4:2:0
Bit depth                      : 8 bits
Scan type                      : Progressive
Bits/(Pixel*Frame)             : 0.128
Stream size                    : 148 MiB (96%)
Color range                    : Limited
Color primaries                : BT.709
Transfer characteristics       : BT.709
Matrix coefficients            : BT.709
Codec configuration box        : avcC

Audio
ID                             : 2
Format                         : AAC LC
Format/Info                    : Advanced Audio Codec Low Complexity
Codec ID                       : mp4a-40-2
Duration                       : 3 min 6 s
Duration_LastFrame             : -12 ms
Bit rate mode                  : Constant
Bit rate                       : 265 kb/s
Channel(s)                     : 2 channels
Channel layout                 : L R
Sampling rate                  : 48.0 kHz
Frame rate                     : 46.875 FPS (1024 SPF)
Compression mode               : Lossy
Stream size                    : 5.82 MiB (4%)
Default                        : Yes
Alternate group                : 1

</pre>
</div>
<div class="bbCodeBlock bbCodeVfcHH HiddenContent">
<div class="attribution type">Hidden Content:</div>
<blockquote>You must either reply or click 'Like' to see the hidden information contained here.</blockquote>
</div>
<div class="messageTextEndMarker">&nbsp;</div>
</blockquote>
</article>]]></description>
                <author><![CDATA[vitalya3]]></author>
                </item>

                </channel></rss>